<svg xmlns="http://www.w3.org/2000/svg" width="512" height="512" viewBox="0 0 512 512" role="img" aria-label="加油 HSK4">
  
  <rect width="512" height="512" fill="#FBF1E0"></rect>
  
  <g transform="translate(208,96) scale(0.96)">
    <path d="M52 6 C 62 30, 80 42, 80 64 A 30 30 0 1 1 20 64 C 20 46, 33 41, 41 28 C 44 41, 50 45, 50 37 C 50 26, 47 16, 52 6 Z" fill="#F2A227"></path>
    <path d="M50 52 C 56 62, 63 66, 63 74 A 13 13 0 1 1 37 74 C 37 65, 45 62, 50 52 Z" fill="#FBD27A"></path>
  </g>
  
  <text x="256" y="300" text-anchor="middle" font-family="&#39;Noto Serif SC&#39;,&#39;Songti SC&#39;,&#39;Hiragino Mincho ProN&#39;,serif" font-weight="900" font-size="150" fill="#1E3A4C">加油</text>
  
  <text x="196" y="406" text-anchor="middle" font-family="system-ui,&#39;Helvetica Neue&#39;,sans-serif" font-weight="800" letter-spacing="6" font-size="37" fill="#B58A4A">HSK</text>
  <g fill="#E0871A">
    <circle cx="268" cy="394" r="9.5"></circle>
    <circle cx="296" cy="394" r="9.5"></circle>
    <circle cx="324" cy="394" r="9.5"></circle>
    <circle cx="352" cy="394" r="9.5"></circle>
  </g>
</svg>